<svg width="960" height="184" viewBox="0 0 960 184" fill="none" xmlns="http://www.w3.org/2000/svg">
<path d="M53.5953 146C45.5953 146 37.7953 145.133 30.1953 143.4C22.5953 141.8 16.062 139.333 10.5953 136C8.86198 135.067 7.99531 134.067 7.99531 133C7.99531 132.2 8.26198 131.467 8.79531 130.8L14.3953 121C15.062 119.8 15.7286 119.2 16.3953 119.2C17.062 119.2 17.9286 119.533 18.9953 120.2C22.9953 122.6 27.9286 124.6 33.7953 126.2C39.662 127.8 45.062 128.6 49.9953 128.6C57.5953 128.6 62.9953 127.867 66.1953 126.4C69.5286 124.8 71.1953 122 71.1953 118C71.1953 115.733 70.5287 113.933 69.1953 112.6C67.9953 111.133 66.1286 109.867 63.5953 108.8C61.062 107.733 56.862 106.267 50.9953 104.4C50.9953 104.4 48.7953 103.667 44.3953 102.2C36.7953 99.6667 30.7286 97.2 26.1953 94.8C21.662 92.4 18.1286 89.4 15.5953 85.8C13.1953 82.0667 11.9953 77.4 11.9953 71.8C11.9953 62.7333 15.7953 55.8667 23.3953 51.2C31.1286 46.4 41.1286 44 53.3953 44C68.3286 44 81.1953 47.2 91.9953 53.6C93.7287 54.5333 94.5953 55.5333 94.5953 56.6C94.5953 57.2667 94.262 58.1333 93.5953 59.2L88.1953 67.8C87.3953 69 86.7286 69.6 86.1953 69.6C85.662 69.6 84.862 69.2667 83.7953 68.6C80.3286 66.4667 76.1286 64.8 71.1953 63.6C66.3953 62.2667 61.5286 61.6 56.5953 61.6C49.9286 61.6 44.9953 62.3333 41.7953 63.8C38.7286 65.1333 37.1953 67.8 37.1953 71.8C37.1953 75.2667 38.9953 78 42.5953 80C46.3286 82 52.7286 84.4 61.7953 87.2L68.3953 89.2C78.7953 92.5333 86.062 96.4667 90.1953 101C94.462 105.533 96.5953 111.2 96.5953 118C96.5953 126.267 92.9286 133 85.5953 138.2C78.3953 143.4 67.7287 146 53.5953 146ZM123.692 183.4C121.026 183.4 119.092 182.8 117.892 181.6C116.826 180.4 116.292 178.6 116.292 176.2V56.6C121.359 53 128.092 50 136.492 47.6C145.026 45.2 153.559 44 162.092 44C200.759 44 220.092 61.0667 220.092 95.2C220.092 110.933 215.826 123.333 207.292 132.4C198.892 141.467 187.292 146 172.492 146C159.026 146 148.692 142.133 141.492 134.4V176.2C141.492 178.733 140.892 180.533 139.692 181.6C138.626 182.8 136.692 183.4 133.892 183.4H123.692ZM166.492 127.8C175.959 127.8 183.026 124.933 187.692 119.2C192.359 113.467 194.692 105.2 194.692 94.4C194.692 82.8 191.959 74.6 186.492 69.8C181.026 64.8667 172.626 62.4 161.292 62.4C152.892 62.4 146.292 63.6667 141.492 66.2V105.6C141.492 112.4 143.892 117.8 148.692 121.8C153.492 125.8 159.426 127.8 166.492 127.8ZM284.852 146C267.518 146 254.118 141.467 244.652 132.4C235.318 123.2 230.652 110.733 230.652 95C230.652 79.2667 235.318 66.8667 244.652 57.8C254.118 48.6 267.518 44 284.852 44C302.185 44 315.585 48.6 325.052 57.8C334.518 66.8667 339.252 79.2667 339.252 95C339.252 110.733 334.518 123.2 325.052 132.4C315.585 141.467 302.185 146 284.852 146ZM284.852 127.2C294.318 127.2 301.518 124.467 306.452 119C311.385 113.533 313.852 105.533 313.852 95C313.852 84.6 311.385 76.7333 306.452 71.4C301.518 65.9333 294.318 63.2 284.852 63.2C275.518 63.2 268.318 65.9333 263.252 71.4C258.318 76.7333 255.852 84.6 255.852 95C255.852 105.4 258.318 113.4 263.252 119C268.318 124.467 275.518 127.2 284.852 127.2ZM366.47 143C363.804 143 361.87 142.4 360.67 141.2C359.47 140 358.87 138.2 358.87 135.8V52.4C358.87 50.4 359.204 49 359.87 48.2C360.537 47.4 361.937 47 364.07 47H375.47C378.404 47 379.937 48.3333 380.07 51L380.47 59C389.537 49 402.537 44 419.47 44C430.27 44 438.937 46.9333 445.47 52.8C452.137 58.5333 455.47 67.2 455.47 78.8V135.8C455.47 138.2 454.87 140 453.67 141.2C452.604 142.4 450.737 143 448.07 143H437.47C434.804 143 432.87 142.4 431.67 141.2C430.47 140 429.87 138.2 429.87 135.8V80.4C429.87 73.8667 428.337 69.2667 425.27 66.6C422.337 63.8 417.537 62.4 410.87 62.4C403.804 62.4 397.604 64.3333 392.27 68.2C387.07 71.9333 384.47 76.8 384.47 82.8V135.8C384.47 138.2 383.87 140 382.67 141.2C381.604 142.4 379.67 143 376.87 143H366.47ZM519.611 146C511.611 146 503.811 145.133 496.211 143.4C488.611 141.8 482.078 139.333 476.611 136C474.878 135.067 474.011 134.067 474.011 133C474.011 132.2 474.278 131.467 474.811 130.8L480.411 121C481.078 119.8 481.744 119.2 482.411 119.2C483.078 119.2 483.944 119.533 485.011 120.2C489.011 122.6 493.944 124.6 499.811 126.2C505.678 127.8 511.078 128.6 516.011 128.6C523.611 128.6 529.011 127.867 532.211 126.4C535.544 124.8 537.211 122 537.211 118C537.211 115.733 536.544 113.933 535.211 112.6C534.011 111.133 532.144 109.867 529.611 108.8C527.078 107.733 522.878 106.267 517.011 104.4C517.011 104.4 514.811 103.667 510.411 102.2C502.811 99.6667 496.744 97.2 492.211 94.8C487.678 92.4 484.144 89.4 481.611 85.8C479.211 82.0667 478.011 77.4 478.011 71.8C478.011 62.7333 481.811 55.8667 489.411 51.2C497.144 46.4 507.144 44 519.411 44C534.344 44 547.211 47.2 558.011 53.6C559.744 54.5333 560.611 55.5333 560.611 56.6C560.611 57.2667 560.278 58.1333 559.611 59.2L554.211 67.8C553.411 69 552.744 69.6 552.211 69.6C551.678 69.6 550.878 69.2667 549.811 68.6C546.344 66.4667 542.144 64.8 537.211 63.6C532.411 62.2667 527.544 61.6 522.611 61.6C515.944 61.6 511.011 62.3333 507.811 63.8C504.744 65.1333 503.211 67.8 503.211 71.8C503.211 75.2667 505.011 78 508.611 80C512.344 82 518.744 84.4 527.811 87.2L534.411 89.2C544.811 92.5333 552.078 96.4667 556.211 101C560.478 105.533 562.611 111.2 562.611 118C562.611 126.267 558.944 133 551.611 138.2C544.411 143.4 533.744 146 519.611 146ZM629.578 146C612.245 146 598.845 141.467 589.378 132.4C580.045 123.2 575.378 110.733 575.378 95C575.378 79.2667 580.045 66.8667 589.378 57.8C598.845 48.6 612.245 44 629.578 44C646.911 44 660.311 48.6 669.778 57.8C679.245 66.8667 683.978 79.2667 683.978 95C683.978 110.733 679.245 123.2 669.778 132.4C660.311 141.467 646.911 146 629.578 146ZM629.578 127.2C639.045 127.2 646.245 124.467 651.178 119C656.111 113.533 658.578 105.533 658.578 95C658.578 84.6 656.111 76.7333 651.178 71.4C646.245 65.9333 639.045 63.2 629.578 63.2C620.245 63.2 613.045 65.9333 607.978 71.4C603.045 76.7333 600.578 84.6 600.578 95C600.578 105.4 603.045 113.4 607.978 119C613.045 124.467 620.245 127.2 629.578 127.2ZM711.197 143C708.53 143 706.597 142.4 705.397 141.2C704.197 140 703.597 138.2 703.597 135.8V52.4C703.597 50.4 703.93 49 704.597 48.2C705.264 47.4 706.664 47 708.797 47H720.197C721.664 47 722.73 47.3333 723.397 48C724.064 48.5333 724.464 49.5333 724.597 51L725.197 58.2C733.064 48.7333 743.397 44 756.197 44C762.064 44 766.53 45 769.597 47C770.397 47.5333 770.864 48.1333 770.997 48.8C771.264 49.3333 771.264 50 770.997 50.8L767.397 62.8C766.997 64.1333 766.264 64.8 765.197 64.8L763.597 64.4C760.397 62.9333 756.73 62.2 752.597 62.2C745.797 62.2 740.197 64.1333 735.797 68C731.397 71.7333 729.197 76.8667 729.197 83.4V135.8C729.197 138.2 728.597 140 727.397 141.2C726.33 142.4 724.397 143 721.597 143H711.197Z" fill="white"/>
<path d="M929.456 30.4C926.256 30.4 923.79 29.4667 922.056 27.6C920.323 25.7333 919.456 23.4667 919.456 20.8V16.6C919.456 13.9333 920.323 11.6667 922.056 9.8C923.79 7.93333 926.256 7 929.456 7H938.056C941.256 7 943.723 7.93333 945.456 9.8C947.323 11.6667 948.256 13.9333 948.256 16.6V20.8C948.256 23.4667 947.323 25.7333 945.456 27.6C943.723 29.4667 941.256 30.4 938.056 30.4H929.456ZM928.656 143C925.99 143 924.056 142.4 922.856 141.2C921.656 140 921.056 138.2 921.056 135.8V54.4C921.056 51.8667 921.656 50 922.856 48.8C924.056 47.6 925.99 47 928.656 47H939.056C941.723 47 943.656 47.6 944.856 48.8C946.056 50 946.656 51.8667 946.656 54.4V135.8C946.656 138.2 946.056 140 944.856 141.2C943.79 142.4 941.856 143 939.056 143H928.656Z" fill="url(#paint0_linear_0_14405)"/>
<path fill-rule="evenodd" clip-rule="evenodd" d="M770 140C770 142 771.133 143 773.4 143H790.8C792.533 143 793.767 142.767 794.5 142.3C795.233 141.833 795.933 140.867 796.6 139.4L807.8 111.4H807.938L835.4 40.4L862.862 111.4H863L874.4 139.4C875.067 140.867 875.767 141.833 876.5 142.3C877.233 142.767 878.467 143 880.2 143H897.6C899.867 143 901 142 901 140C901 139.2 900.8 138.333 900.4 137.4L847.6 12.2C846.8 10.2 845.967 8.83334 845.1 8.1C844.233 7.36666 842.867 7 841 7H830C828.267 7 826.933 7.36666 826 8.1C825.067 8.83334 824.2 10.2 823.4 12.2L770.6 137.4C770.2 138.333 770 139.2 770 140Z" fill="url(#paint1_linear_0_14405)"/>
<defs>
<linearGradient id="paint0_linear_0_14405" x1="904.847" y1="41.2272" x2="997.912" y2="105.906" gradientUnits="userSpaceOnUse">
<stop stop-color="#FD7E14"/>
<stop offset="1" stop-color="#BE4BDB"/>
</linearGradient>
<linearGradient id="paint1_linear_0_14405" x1="764.68" y1="46.2091" x2="844.712" y2="190.766" gradientUnits="userSpaceOnUse">
<stop stop-color="#FD7E14"/>
<stop offset="1" stop-color="#BE4BDB"/>
</linearGradient>
</defs>
</svg>
