<svg width="940" height="177" viewBox="0 0 940 177" fill="none" xmlns="http://www.w3.org/2000/svg">
<g clip-path="url(#clip0_0_14445)">
<path d="M46.5951 139C38.5951 139 30.7951 138.133 23.1951 136.4C15.5951 134.8 9.06178 132.333 3.59512 129C1.86178 128.067 0.995117 127.067 0.995117 126C0.995117 125.2 1.26178 124.467 1.79512 123.8L7.39512 114C8.06178 112.8 8.72845 112.2 9.39512 112.2C10.0618 112.2 10.9285 112.533 11.9951 113.2C15.9951 115.6 20.9285 117.6 26.7951 119.2C32.6618 120.8 38.0618 121.6 42.9951 121.6C50.5951 121.6 55.9951 120.867 59.1951 119.4C62.5285 117.8 64.1951 115 64.1951 111C64.1951 108.733 63.5285 106.933 62.1951 105.6C60.9951 104.133 59.1285 102.867 56.5951 101.8C54.0618 100.733 49.8618 99.2667 43.9951 97.4C43.9951 97.4 41.7951 96.6667 37.3951 95.2C29.7951 92.6667 23.7285 90.2 19.1951 87.8C14.6618 85.4 11.1285 82.4 8.59512 78.8C6.19512 75.0667 4.99512 70.4 4.99512 64.8C4.99512 55.7333 8.79512 48.8667 16.3951 44.2C24.1285 39.4 34.1285 37 46.3951 37C61.3285 37 74.1951 40.2 84.9951 46.6C86.7285 47.5333 87.5951 48.5333 87.5951 49.6C87.5951 50.2667 87.2618 51.1333 86.5951 52.2L81.1951 60.8C80.3951 62 79.7285 62.6 79.1951 62.6C78.6618 62.6 77.8618 62.2667 76.7951 61.6C73.3285 59.4667 69.1285 57.8 64.1951 56.6C59.3951 55.2667 54.5285 54.6 49.5951 54.6C42.9285 54.6 37.9951 55.3333 34.7951 56.8C31.7284 58.1333 30.1951 60.8 30.1951 64.8C30.1951 68.2667 31.9951 71 35.5951 73C39.3285 75 45.7285 77.4 54.7951 80.2L61.3951 82.2C71.7951 85.5333 79.0618 89.4667 83.1951 94C87.4618 98.5333 89.5951 104.2 89.5951 111C89.5951 119.267 85.9285 126 78.5951 131.2C71.3951 136.4 60.7285 139 46.5951 139Z" fill="#494F4D"/>
<path d="M116.692 176.4C114.025 176.4 112.092 175.8 110.892 174.6C109.825 173.4 109.292 171.6 109.292 169.2V49.6C114.359 46 121.092 43 129.492 40.6C138.025 38.2 146.559 37 155.092 37C193.759 37 213.092 54.0667 213.092 88.2C213.092 103.933 208.825 116.333 200.292 125.4C191.892 134.467 180.292 139 165.492 139C152.025 139 141.692 135.133 134.492 127.4V169.2C134.492 171.733 133.892 173.533 132.692 174.6C131.625 175.8 129.692 176.4 126.892 176.4H116.692ZM159.492 120.8C168.959 120.8 176.025 117.933 180.692 112.2C185.359 106.467 187.692 98.2 187.692 87.4C187.692 75.8 184.959 67.6 179.492 62.8C174.025 57.8667 165.625 55.4 154.292 55.4C145.892 55.4 139.292 56.6667 134.492 59.2V98.6C134.492 105.4 136.892 110.8 141.692 114.8C146.492 118.8 152.425 120.8 159.492 120.8Z" fill="#494F4D"/>
<path d="M277.851 139C260.518 139 247.118 134.467 237.651 125.4C228.318 116.2 223.651 103.733 223.651 88C223.651 72.2667 228.318 59.8667 237.651 50.8C247.118 41.6 260.518 37 277.851 37C295.185 37 308.585 41.6 318.051 50.8C327.518 59.8667 332.251 72.2667 332.251 88C332.251 103.733 327.518 116.2 318.051 125.4C308.585 134.467 295.185 139 277.851 139ZM277.851 120.2C287.318 120.2 294.518 117.467 299.451 112C304.385 106.533 306.851 98.5333 306.851 88C306.851 77.6 304.385 69.7333 299.451 64.4C294.518 58.9333 287.318 56.2 277.851 56.2C268.518 56.2 261.318 58.9333 256.251 64.4C251.318 69.7333 248.851 77.6 248.851 88C248.851 98.4 251.318 106.4 256.251 112C261.318 117.467 268.518 120.2 277.851 120.2Z" fill="#494F4D"/>
<path d="M359.47 136C356.803 136 354.87 135.4 353.67 134.2C352.47 133 351.87 131.2 351.87 128.8V45.4C351.87 43.4 352.203 42 352.87 41.2C353.537 40.4 354.937 40 357.07 40H368.47C371.403 40 372.937 41.3333 373.07 44L373.47 52C382.537 42 395.537 37 412.47 37C423.27 37 431.937 39.9333 438.47 45.8C445.137 51.5333 448.47 60.2 448.47 71.8V128.8C448.47 131.2 447.87 133 446.67 134.2C445.603 135.4 443.737 136 441.07 136H430.47C427.803 136 425.87 135.4 424.67 134.2C423.47 133 422.87 131.2 422.87 128.8V73.4C422.87 66.8667 421.337 62.2667 418.27 59.6C415.337 56.8 410.537 55.4 403.87 55.4C396.803 55.4 390.603 57.3333 385.27 61.2C380.07 64.9333 377.47 69.8 377.47 75.8V128.8C377.47 131.2 376.87 133 375.67 134.2C374.603 135.4 372.67 136 369.87 136H359.47Z" fill="#494F4D"/>
<path d="M512.611 139C504.611 139 496.811 138.133 489.211 136.4C481.611 134.8 475.077 132.333 469.611 129C467.877 128.067 467.011 127.067 467.011 126C467.011 125.2 467.277 124.467 467.811 123.8L473.411 114C474.077 112.8 474.744 112.2 475.411 112.2C476.077 112.2 476.944 112.533 478.011 113.2C482.011 115.6 486.944 117.6 492.811 119.2C498.677 120.8 504.077 121.6 509.011 121.6C516.611 121.6 522.011 120.867 525.211 119.4C528.544 117.8 530.211 115 530.211 111C530.211 108.733 529.544 106.933 528.211 105.6C527.011 104.133 525.144 102.867 522.611 101.8C520.077 100.733 515.877 99.2667 510.011 97.4C510.011 97.4 507.811 96.6667 503.411 95.2C495.811 92.6667 489.744 90.2 485.211 87.8C480.677 85.4 477.144 82.4 474.611 78.8C472.211 75.0667 471.011 70.4 471.011 64.8C471.011 55.7333 474.811 48.8667 482.411 44.2C490.144 39.4 500.144 37 512.411 37C527.344 37 540.211 40.2 551.011 46.6C552.744 47.5333 553.611 48.5333 553.611 49.6C553.611 50.2667 553.277 51.1333 552.611 52.2L547.211 60.8C546.411 62 545.744 62.6 545.211 62.6C544.677 62.6 543.877 62.2667 542.811 61.6C539.344 59.4667 535.144 57.8 530.211 56.6C525.411 55.2667 520.544 54.6 515.611 54.6C508.944 54.6 504.011 55.3333 500.811 56.8C497.744 58.1333 496.211 60.8 496.211 64.8C496.211 68.2667 498.011 71 501.611 73C505.344 75 511.744 77.4 520.811 80.2L527.411 82.2C537.811 85.5333 545.077 89.4667 549.211 94C553.477 98.5333 555.611 104.2 555.611 111C555.611 119.267 551.944 126 544.611 131.2C537.411 136.4 526.744 139 512.611 139Z" fill="#494F4D"/>
<path d="M622.578 139C605.245 139 591.845 134.467 582.378 125.4C573.045 116.2 568.378 103.733 568.378 88C568.378 72.2667 573.045 59.8667 582.378 50.8C591.845 41.6 605.245 37 622.578 37C639.911 37 653.311 41.6 662.778 50.8C672.245 59.8667 676.978 72.2667 676.978 88C676.978 103.733 672.245 116.2 662.778 125.4C653.311 134.467 639.911 139 622.578 139ZM622.578 120.2C632.045 120.2 639.245 117.467 644.178 112C649.111 106.533 651.578 98.5333 651.578 88C651.578 77.6 649.111 69.7333 644.178 64.4C639.245 58.9333 632.045 56.2 622.578 56.2C613.245 56.2 606.045 58.9333 600.978 64.4C596.045 69.7333 593.578 77.6 593.578 88C593.578 98.4 596.045 106.4 600.978 112C606.045 117.467 613.245 120.2 622.578 120.2Z" fill="#494F4D"/>
<path d="M704.197 136C701.53 136 699.597 135.4 698.397 134.2C697.197 133 696.597 131.2 696.597 128.8V45.4C696.597 43.4 696.93 42 697.597 41.2C698.263 40.4 699.663 40 701.797 40H713.197C714.663 40 715.73 40.3333 716.397 41C717.063 41.5333 717.463 42.5333 717.597 44L718.197 51.2C726.063 41.7333 736.397 37 749.197 37C755.063 37 759.53 38 762.597 40C763.397 40.5333 763.863 41.1333 763.997 41.8C764.263 42.3333 764.263 43 763.997 43.8L760.397 55.8C759.997 57.1333 759.263 57.8 758.197 57.8L756.597 57.4C753.397 55.9333 749.73 55.2 745.597 55.2C738.797 55.2 733.197 57.1333 728.797 61C724.397 64.7333 722.197 69.8667 722.197 76.4V128.8C722.197 131.2 721.597 133 720.397 134.2C719.33 135.4 717.397 136 714.597 136H704.197Z" fill="#494F4D"/>
<path fill-rule="evenodd" clip-rule="evenodd" d="M763 133C763 135 764.133 136 766.4 136H783.8C785.533 136 786.767 135.767 787.5 135.3C788.233 134.833 788.933 133.867 789.6 132.4L800.8 104.4H800.938L828.4 33.4L855.862 104.4H856L867.4 132.4C868.067 133.867 868.767 134.833 869.5 135.3C870.233 135.767 871.467 136 873.2 136H890.6C892.867 136 894 135 894 133C894 132.2 893.8 131.333 893.4 130.4L840.6 5.2C839.8 3.19999 838.967 1.83334 838.1 1.1C837.233 0.366663 835.867 0 834 0H823C821.267 0 819.933 0.366663 819 1.1C818.067 1.83334 817.2 3.19999 816.4 5.2L763.6 130.4C763.2 131.333 763 132.2 763 133Z" fill="url(#paint0_linear_0_14445)"/>
<path d="M921 136C918.333 136 916.433 135.4 915.3 134.2C914.167 133 913.6 131.2 913.6 128.8V7.4C913.6 4.86665 914.167 3 915.3 1.8C916.433 0.599994 918.333 0 921 0H931.6C934.267 0 936.2 0.599994 937.4 1.8C938.6 3 939.2 4.86665 939.2 7.4V128.8C939.2 131.2 938.633 133 937.5 134.2C936.367 135.4 934.4 136 931.6 136H921Z" fill="url(#paint1_linear_0_14445)"/>
</g>
<defs>
<linearGradient id="paint0_linear_0_14445" x1="797.5" y1="-9.26828e-08" x2="901.755" y2="136.756" gradientUnits="userSpaceOnUse">
<stop stop-color="#FD7E14"/>
<stop offset="0.7875" stop-color="#E3339A"/>
</linearGradient>
<linearGradient id="paint1_linear_0_14445" x1="956.5" y1="-4.5" x2="1000.88" y2="30.1252" gradientUnits="userSpaceOnUse">
<stop stop-color="#FD7E14"/>
<stop offset="0.859552" stop-color="#E3339A"/>
</linearGradient>
<clipPath id="clip0_0_14445">
<rect width="940" height="177" fill="white"/>
</clipPath>
</defs>
</svg>
