<svg width="262" height="51" viewBox="0 0 262 51" fill="none" xmlns="http://www.w3.org/2000/svg">
<g clip-path="url(#clip0_8001_478)">
<path d="M146.33 25.1468L156.278 9.56653L156.111 25.1468H170.914L183.745 6.65085H171.986L162.058 23.0981L162.077 6.65085H152.36L142.316 23.0981L142.727 6.65727H128.572L131.488 25.1468H146.33Z" fill="white"/>
<path fill-rule="evenodd" clip-rule="evenodd" d="M130.505 26.2963L131.488 25.1468H131.43L128.572 6.65726H142.727L143.947 5.52053V5.50769H127.224L130.441 26.2963H130.505Z" fill="#B2B2B2"/>
<path fill-rule="evenodd" clip-rule="evenodd" d="M155.09 13.529L154.948 26.2964L156.111 25.1468L156.278 9.56653L155.09 13.529Z" fill="#B2B2B2"/>
<path fill-rule="evenodd" clip-rule="evenodd" d="M186.025 5.50128H171.312L163.124 20.2338L162.058 23.0981L171.986 6.65086H183.745L186.025 5.50128Z" fill="#B2B2B2"/>
<path fill-rule="evenodd" clip-rule="evenodd" d="M163.252 5.50128H151.705L143.254 19.4503L142.316 23.0981L152.36 6.65086H162.077L163.252 5.50128Z" fill="#B2B2B2"/>
<path fill-rule="evenodd" clip-rule="evenodd" d="M219.633 24.588L228.149 1.68006L240.299 1.69933L241.956 0.530487H227.359L218.008 25.7376L219.633 24.588Z" fill="#B2B2B2"/>
<path d="M78.5242 10.4399L76.8801 8.64815C75.8975 7.56922 74.3112 6.68295 71.3827 6.33616C70.4513 6.22688 69.514 6.1754 68.5762 6.18202C60.8374 6.18202 55.1795 9.52157 52.662 16.3034C52.1666 17.5305 51.8885 18.8343 51.8399 20.1567C51.8336 20.7147 51.9182 21.27 52.0904 21.8008C52.6299 23.31 54.0171 24.3183 56.5474 24.8578C57.8991 25.1207 59.2743 25.2433 60.6512 25.2238C64.3763 25.2729 68.0473 24.3285 71.2863 22.488L74.7993 20.4393L73.213 24.6458H85.2289L91.9209 6.66369H79.8921L78.5306 10.4528L78.0297 8.20502L78.5242 10.4399ZM77.381 15.8731C76.817 17.4256 75.7753 18.7594 74.4055 19.6825C73.0358 20.6057 71.4086 21.0708 69.7579 21.0109C69.1281 21.0185 68.4994 20.9582 67.8826 20.8311C67.2581 20.7303 66.6654 20.4867 66.1508 20.119C65.6361 19.7514 65.2133 19.2697 64.9155 18.7117C64.6939 18.1635 64.5889 17.5752 64.6073 16.9842C64.6221 16.2272 64.7722 15.479 65.0504 14.7749C66.3348 11.1592 69.4175 9.57294 72.757 9.57294C73.3834 9.56863 74.0082 9.63542 74.6195 9.77203C75.3549 9.91005 76.0359 10.2545 76.5829 10.7651C77.1299 11.2757 77.5203 11.9314 77.7085 12.6556C77.785 12.9863 77.8238 13.3245 77.8241 13.6639C77.8105 14.421 77.6604 15.1694 77.381 15.8731Z" fill="white"/>
<path d="M76.6618 13.3171C76.6684 13.4304 76.6684 13.5441 76.6618 13.6575C76.6415 14.2765 76.5133 14.8872 76.2829 15.4621C75.797 16.8402 74.869 18.0189 73.6433 18.8145C72.471 19.5431 71.1123 19.9157 69.7322 19.887C68.7236 19.9487 67.7179 19.7262 66.8294 19.2448C66.4176 18.9945 66.0942 18.6217 65.9046 18.1787L64.8899 18.7503C65.1877 19.3083 65.6104 19.7899 66.1251 20.1575C66.6398 20.5252 67.2325 20.7689 67.857 20.8696C68.4738 20.9967 69.1025 21.057 69.7322 21.0494C71.3829 21.1093 73.0101 20.6442 74.3799 19.721C75.7496 18.7979 76.7914 17.4642 77.3554 15.9116C77.6348 15.2079 77.7849 14.4595 77.7985 13.7024C77.7982 13.363 77.7594 13.0248 77.6829 12.6941L76.6618 13.3171Z" fill="#999999"/>
<path d="M51.8143 20.1696C51.8628 18.8472 52.141 17.5433 52.6363 16.3163C55.1795 9.52158 60.8375 6.18203 68.5762 6.18203C69.514 6.17541 70.4513 6.22689 71.3827 6.33617L71.4791 5.18017C70.5155 5.07022 69.5461 5.01875 68.5762 5.02604C64.4318 5.02604 60.921 5.91872 58.0438 7.7041C55.0137 9.61677 52.7258 12.5049 51.5574 15.8924C51.0121 17.2527 50.71 18.6983 50.6647 20.1632C50.6481 20.9635 50.7945 21.7589 51.095 22.5008L52.0648 21.8072C51.8932 21.2785 51.8086 20.7254 51.8143 20.1696Z" fill="#999999"/>
<path d="M74.7993 20.4265L72.5772 23.0403L71.5625 25.789L73.1809 24.6458L74.7993 20.4265Z" fill="#999999"/>
<path d="M78.0297 8.19218L78.5306 10.44L79.8921 6.65086H91.8952L93.5585 5.50128H79.0829L78.0297 8.19218Z" fill="#999999"/>
<path d="M65.7569 17.0099C65.7733 16.3848 65.8994 15.7674 66.1294 15.186C66.6017 13.8006 67.53 12.6165 68.7625 11.8271C69.9596 11.0894 71.3449 10.7146 72.7507 10.7482C73.7514 10.6953 74.7456 10.9388 75.6086 11.4482C75.9142 11.6626 76.1676 11.9431 76.3499 12.2689C76.5322 12.5947 76.6388 12.9573 76.6618 13.3299L77.7086 12.6877C77.5157 11.9674 77.1224 11.3166 76.5745 10.8107C76.0266 10.3049 75.3465 9.96476 74.6131 9.82984C74.0018 9.69323 73.377 9.62644 72.7507 9.63075C69.4176 9.63075 66.367 11.217 65.0441 14.8327C64.7659 15.5368 64.6158 16.285 64.6009 17.042C64.5826 17.633 64.6876 18.2213 64.9092 18.7695L65.9239 18.198C65.7921 17.8164 65.7354 17.413 65.7569 17.0099Z" fill="#333333"/>
<path d="M85.1968 24.6459H73.1809L71.5625 25.789L85.9996 25.7954L93.5585 5.50128L91.8952 6.65086L85.1968 24.6459Z" fill="#333333"/>
<path d="M71.2864 22.488C68.0411 24.3374 64.3606 25.2864 60.6256 25.2367C59.2466 25.2566 57.8692 25.1339 56.5154 24.8706C53.9465 24.3312 52.5978 23.3229 52.0584 21.8137L51.0886 22.5072C51.5216 23.4716 52.2415 24.279 53.1501 24.8192C54.8392 25.8725 57.3246 26.3863 60.6192 26.3863C64.5477 26.4366 68.4179 25.4319 71.8259 23.477L72.5709 23.0403L74.7994 20.4393L71.2864 22.488Z" fill="#333333"/>
<path d="M76.8801 8.64814L78.5242 10.4399L78.0297 8.205L77.7342 7.89032C76.826 6.92925 75.6909 6.21157 74.4332 5.8031C73.4719 5.49945 72.482 5.29501 71.479 5.19299L71.3827 6.31046C74.3241 6.68294 75.8975 7.5949 76.8801 8.64814Z" fill="#333333"/>
<path d="M109.543 6.81783H98.5357L91.5227 25.0248L103.545 25.1468L105.118 21.0815C107.276 15.5135 109.614 14.8392 119.305 14.8392C119.947 14.8392 124.443 14.8392 125.143 14.8392L123.794 6.4903H119.588C116.826 6.4903 115.458 7.00407 114.309 7.61418C113.025 8.31375 111.838 9.17728 110.776 10.1831L108.85 12.1739L108.015 11.4354L109.543 6.81783Z" fill="white"/>
<path d="M98.5358 6.81782H109.543L111.188 5.66824H97.733L89.7823 26.2963H89.808L91.5228 25.0247L98.5358 6.81782Z" fill="#999999"/>
<path d="M114.315 7.5949C115.465 6.98479 116.833 6.47101 119.594 6.47101H123.801L124.777 5.52695H120.281C118.929 5.48615 117.576 5.57649 116.242 5.79668C115.432 6.00282 114.649 6.30465 113.911 6.69579C113.211 7.07046 112.563 7.53462 111.984 8.07656C111.317 8.64717 110.732 9.30619 110.243 10.0353L108.85 12.1354L110.777 10.1445C111.841 9.14506 113.03 8.28802 114.315 7.5949Z" fill="#999999"/>
<path d="M123.794 6.47745L125.143 14.8263C124.469 14.8263 120.005 14.8263 119.305 14.8263C109.595 14.8263 107.276 15.4685 105.119 21.0687L103.545 25.1339L91.5227 25.0119L89.808 26.2964H104.322L106.191 21.499C106.647 20.3301 107.771 16.0208 115.696 16.0208C116.865 16.0208 125.329 15.9887 126.492 16.0208L124.77 5.53339L123.794 6.47745Z" fill="#333333"/>
<path d="M108.047 11.3968L108.882 12.1354L109.145 11.3519L111.188 5.66824L109.543 6.81782L108.047 11.3968Z" fill="#333333"/>
<path fill-rule="evenodd" clip-rule="evenodd" d="M130.512 26.2964H146.959L155.09 13.529L156.271 9.56653L146.33 25.1468H131.495L130.512 26.2964Z" fill="#575756"/>
<path fill-rule="evenodd" clip-rule="evenodd" d="M186.038 5.50769L183.745 6.65084L170.914 25.1468H156.111L154.948 26.2963H171.518L186.077 5.50769H186.038Z" fill="#575756"/>
<path fill-rule="evenodd" clip-rule="evenodd" d="M163.124 20.2338L163.252 5.50128L162.077 6.65086L162.051 20.1503L162.058 23.0981L163.124 20.2338Z" fill="#575756"/>
<path fill-rule="evenodd" clip-rule="evenodd" d="M143.254 19.4503L143.934 5.53339L142.727 6.65727L142.316 23.0981L143.254 19.4503Z" fill="#575756"/>
<path fill-rule="evenodd" clip-rule="evenodd" d="M241.956 0.530487L240.299 1.69933L231.771 24.588H219.633L218.008 25.7376H232.573L241.956 0.530487Z" fill="#575756"/>
<path d="M39.991 13.5483C42.704 12.8032 45.2574 11.5668 47.5243 9.90046C48.6037 9.23322 49.453 8.25163 49.9583 7.08754C50.1103 6.7116 50.193 6.31125 50.2023 5.90585C50.2023 5.19941 49.8234 4.19755 47.4472 3.54249C47.0508 3.419 46.6477 3.31822 46.2398 3.24064C46.2398 3.24064 46.2398 3.24064 46.1884 3.24064H46.1049C45.5077 3.12504 44.6535 2.94522 37.2102 2.94522H12.9664L4.91296 24.6394H32.1816C35.0148 24.7563 37.8452 24.3492 40.5305 23.4385C43.7801 22.2375 45.2893 20.5742 45.7389 19.3411C45.8338 19.0753 45.8816 18.7949 45.8802 18.5126C45.8773 18.3607 45.8557 18.2097 45.8159 18.0631C45.5976 17.2282 44.6728 16.3034 42.8489 15.3979C41.3943 14.7179 39.8431 14.2673 38.2506 14.062V13.9593L39.991 13.5483ZM32.8752 18.686C32.233 20.4457 30.3063 21.4797 26.9283 21.4797H19.0033L21.3602 15.0575H27.7824C31.5009 15.0575 32.4706 16.1749 32.4706 16.1749C32.8779 16.5955 33.1079 17.1565 33.1128 17.742C33.0992 18.0737 33.0184 18.3993 32.8752 18.6989V18.686ZM35.5404 10.2601C35.0909 11.4675 33.9285 12.3345 32.2458 12.7905C31.6036 12.9639 30.9614 13.0923 28.3925 13.0923H22.1694L24.5456 6.6123H30.0173C32.9138 6.6123 33.8707 6.7857 34.5514 7.25452L34.7184 7.38296H34.7633C35.0586 7.60997 35.2979 7.90172 35.4627 8.23575C35.6274 8.56977 35.7134 8.93716 35.7138 9.30962C35.7211 9.6391 35.6622 9.9667 35.5404 10.2729V10.2601Z" fill="white"/>
<path d="M34.7634 7.4472H34.7184L34.5514 7.31876L33.3954 8.03804C33.5993 8.09653 33.7923 8.18761 33.967 8.30777C33.9899 8.3323 34.0158 8.35387 34.0441 8.372C34.196 8.4936 34.3183 8.64813 34.4017 8.82391C34.4851 8.99969 34.5276 9.19213 34.5257 9.3867C34.5243 9.53873 34.5027 9.6899 34.4615 9.83626C34.1019 10.6583 33.2798 11.262 31.9697 11.6345C31.9313 11.6392 31.8925 11.6392 31.8541 11.6345C31.5216 11.713 31.185 11.7731 30.8458 11.8143C30.2742 11.8657 29.4522 11.8978 28.3861 11.8978H23.8264L22.1694 13.0345H28.3925C30.9614 13.0345 31.6036 12.9061 32.2459 12.7327C33.9285 12.2767 35.0909 11.4097 35.5405 10.2023C35.654 9.91612 35.7128 9.61113 35.7139 9.30322C35.7028 8.94276 35.6118 8.58925 35.4474 8.26827C35.283 7.94728 35.0494 7.66683 34.7634 7.4472Z" fill="#999999"/>
<path d="M31.4688 16.8621C31.5968 16.9745 31.6997 17.1127 31.7705 17.2677C31.8414 17.4226 31.8786 17.5908 31.8798 17.7612C31.8791 17.9453 31.8465 18.1278 31.7835 18.3007C31.5204 18.935 31.0205 19.4418 30.3898 19.7136C29.2915 20.1829 28.1025 20.4023 26.909 20.3558H20.6795L18.984 21.5054H26.9283C30.2871 21.5054 32.2458 20.4714 32.8752 18.7117C32.9977 18.41 33.0588 18.0869 33.055 17.7612C33.0501 17.1758 32.8202 16.6147 32.4128 16.1942L31.4688 16.8621Z" fill="#999999"/>
<path d="M45.816 18.0502L46.8178 17.408C46.7468 17.2466 46.6652 17.09 46.5738 16.9392C46.2378 16.408 45.777 15.967 45.2315 15.6548C42.5535 14.0877 38.2506 14.0877 38.2506 14.0877C39.8431 14.293 41.3943 14.7436 42.8489 15.4236C44.6728 16.3034 45.5976 17.2282 45.816 18.0502Z" fill="#999999"/>
<path d="M12.9665 2.91311H37.191C44.6343 2.91311 45.4885 3.09294 46.0857 3.20854H46.1692C46.1692 3.20854 46.2142 3.20854 46.2206 3.20854C46.6263 3.28635 47.0273 3.38712 47.4216 3.51038L48.8088 2.79109C48.0512 2.48125 47.2634 2.25095 46.4582 2.10392C46.4092 2.11003 46.3596 2.11003 46.3105 2.10392C45.6509 1.97981 44.9836 1.90042 44.3132 1.8663C42.8746 1.79351 40.4941 1.75926 37.1717 1.76354H12.2022L3.28821 25.789L4.91302 24.6394L12.9665 2.91311Z" fill="#999999"/>
<path d="M25.3548 7.78114H30.0174C31.0455 7.76071 32.0737 7.81652 33.0936 7.94812C33.2044 7.97178 33.3138 8.0018 33.4211 8.03803L34.5514 7.28663C33.845 6.79854 32.9138 6.64441 30.0174 6.64441H24.5456L22.1694 13.1244L23.8264 11.9877L25.3548 7.78114Z" fill="#333333"/>
<path d="M22.163 16.2135H27.7503C30.711 16.2135 31.3981 16.7787 31.4752 16.8557L32.4385 16.2135C32.4385 16.2135 31.4688 15.096 27.7503 15.096H21.3281L18.9712 21.5182L20.6667 20.3687L22.163 16.2135Z" fill="#333333"/>
<path d="M31.4688 16.8557L32.4193 16.175L31.4559 16.8172L31.4688 16.8557Z" fill="#333333"/>
<path d="M45.8802 18.5126C45.8737 18.8033 45.8149 19.0905 45.7068 19.3604C45.2573 20.5934 43.7802 22.2568 40.4984 23.4577C37.8131 24.3685 34.9827 24.7756 32.1496 24.6587H4.91302L3.28821 25.789H32.0725C33.5246 25.8 34.9762 25.7293 36.4203 25.5771C37.9557 25.4008 39.4648 25.0429 40.9159 24.511C42.366 23.9966 43.7155 23.2338 44.904 22.2568C45.7417 21.5909 46.3923 20.719 46.7922 19.7264C46.9405 19.3385 47.0209 18.9279 47.0298 18.5126C47.0348 18.1339 46.9627 17.758 46.8179 17.408L45.816 18.0502C45.8569 18.201 45.8784 18.3564 45.8802 18.5126Z" fill="#333333"/>
<path d="M48.8087 2.79111L47.4343 3.5425C49.8105 4.18472 50.1895 5.19943 50.1895 5.90587C50.1801 6.31127 50.0974 6.71162 49.9454 7.08756C49.4436 8.24986 48.5989 9.23124 47.5242 9.90048C45.2612 11.5654 42.7124 12.8018 40.0038 13.5483L38.2634 13.9593V14.0621L40.113 13.7602C41.7931 13.4826 43.4412 13.0373 45.0324 12.4308C46.1354 12.0314 47.1873 11.5033 48.1665 10.8574C48.9785 10.3211 49.6948 9.65248 50.2858 8.87935C50.6043 8.46316 50.8597 8.00221 51.0436 7.51142C51.254 7.00172 51.3672 6.45719 51.3776 5.90587C51.3776 4.5251 50.517 3.49113 48.8087 2.79111Z" fill="#333333"/>
<path d="M204.374 6.1499C197.078 6.1499 192.075 7.7105 189.513 9.03989C186.237 10.6385 183.706 13.4411 182.448 16.8621C182.064 17.782 181.847 18.7627 181.806 19.7585C181.804 20.0475 181.832 20.3358 181.889 20.6191C182.243 22.3467 183.816 23.9394 188.254 24.7422C190.391 25.0916 192.555 25.2549 194.721 25.2303C200.073 25.1784 205.412 24.6952 210.687 23.7853L212.992 21.2164C208.716 21.9486 204.394 22.3779 200.058 22.5008C199.425 22.4875 198.793 22.4253 198.17 22.3146C195.864 21.9036 194.393 20.7347 194.393 18.7695C194.396 18.5654 194.411 18.3617 194.438 18.1594L194.618 16.9071H216.216C216.909 15.3293 217.307 13.6381 217.391 11.917C217.424 11.1386 217.24 10.3664 216.861 9.68613C216.481 9.00588 215.92 8.44427 215.24 8.06372C213.825 7.26173 212.264 6.75079 210.648 6.56092C208.57 6.26197 206.473 6.12456 204.374 6.1499ZM207.938 13.7409L207.591 14.7107H195.145L195.922 12.6877C196.988 10.1188 199.865 8.42978 203.121 8.42978C203.77 8.42133 204.417 8.49251 205.048 8.64172C205.7 8.79567 206.316 9.07724 206.859 9.47018C207.291 9.78885 207.64 10.2066 207.877 10.6883C208.114 11.1699 208.232 11.7015 208.22 12.2381C208.215 12.7517 208.119 13.2603 207.938 13.7409Z" fill="white"/>
<path d="M206.853 9.47018L205.799 10.1638C205.874 10.2026 205.945 10.2478 206.011 10.2986C206.34 10.5003 206.61 10.7839 206.796 11.1217C206.982 11.4595 207.077 11.8398 207.071 12.2253C207.064 12.6065 206.995 12.9841 206.865 13.3428L206.788 13.5483H196.834L195.145 14.7043H207.591L207.938 13.7345C208.117 13.2535 208.21 12.7449 208.214 12.2317C208.224 11.6961 208.106 11.1659 207.869 10.6854C207.632 10.2049 207.284 9.78822 206.853 9.47018Z" fill="#999999"/>
<path d="M181.806 19.7586C181.847 18.7627 182.065 17.782 182.448 16.8621C183.706 13.4411 186.237 10.6385 189.513 9.0399C192.082 7.71051 197.078 6.14991 204.374 6.14991C206.479 6.12357 208.583 6.26099 210.667 6.56093C212.274 6.74535 213.829 7.24745 215.24 8.03804L216.203 7.30591C215.914 7.08818 215.606 6.89485 215.285 6.72791C212.986 5.59332 209.349 5.02603 204.374 5.02603C201.195 4.99413 198.022 5.31506 194.914 5.98294C192.863 6.40815 190.875 7.09449 188.999 8.02519C185.45 9.73983 182.705 12.7653 181.344 16.464C180.919 17.5254 180.686 18.6541 180.656 19.7971C180.651 20.2099 180.696 20.6219 180.791 21.0237L181.889 20.6448C181.831 20.3531 181.803 20.0561 181.806 19.7586Z" fill="#999999"/>
<path d="M212.992 21.1907L216.011 19.553C216.011 19.553 212.934 20.1631 207.122 20.9081C205.324 21.1393 203.674 21.2999 202.222 21.3513L200.058 22.5073C204.395 22.3737 208.717 21.9337 212.992 21.1907Z" fill="#999999"/>
<path d="M196.994 13.1308C197.441 12.0363 198.25 11.1291 199.287 10.562C200.456 9.88248 201.789 9.536 203.141 9.5601C204.063 9.51641 204.982 9.71338 205.806 10.1317L206.859 9.45092C206.316 9.05798 205.7 8.77641 205.048 8.62246C204.417 8.47325 203.77 8.40207 203.121 8.41052C199.865 8.41052 196.988 10.0996 195.922 12.6684L195.145 14.6914L196.834 13.5354L196.994 13.1308Z" fill="#333333"/>
<path d="M210.687 23.7853C205.412 24.6952 200.073 25.1784 194.721 25.2303C192.555 25.2549 190.391 25.0916 188.254 24.7422C183.797 23.9394 182.243 22.3467 181.889 20.6191L180.791 20.998C181.648 24.5945 186.291 26.3905 194.721 26.3863C197.2 26.3863 199.859 26.2578 202.71 25.9945C205.562 25.7312 208.426 25.3523 211.277 24.8706L216.011 19.553L212.992 21.1907L210.687 23.7853Z" fill="#333333"/>
<path d="M216.011 19.553C216.011 19.553 212.973 21.1907 212.992 21.1907L216.011 19.553Z" fill="#333333"/>
<path d="M216.203 7.30591L215.24 8.03804C215.92 8.41859 216.481 8.9802 216.861 9.66045C217.24 10.3407 217.424 11.1129 217.391 11.8914C217.307 13.6125 216.909 15.3036 216.216 16.8814H194.593L194.413 18.1337C194.386 18.336 194.371 18.5398 194.368 18.7438C194.368 20.709 195.838 21.8779 198.144 22.2889C198.768 22.3996 199.399 22.4618 200.032 22.4751L202.196 21.3191C201.728 21.3191 201.278 21.3191 200.841 21.3191C197.303 21.3191 195.517 20.4457 195.517 18.7117C195.523 18.5632 195.538 18.4152 195.562 18.2686L195.601 18.0053H216.968C217.876 16.0805 218.402 13.9975 218.515 11.8721C218.544 10.822 218.277 9.7849 217.745 8.87935C217.346 8.25363 216.821 7.7178 216.203 7.30591Z" fill="#333333"/>
<path d="M122.022 50.2512H120.654L123.737 40.2068L116.351 50.2512H114.745L113.121 39.9756L110.333 50.2512H108.965L112.433 38.1517H114.148L115.856 49.1144L123.846 38.1517H125.496L122.022 50.2512Z" fill="white"/>
<path d="M138.72 48.3951C137.151 49.7946 135.105 50.5373 133.004 50.4695C129.106 50.4695 126.62 48.3438 126.62 44.985C126.62 40.8747 129.94 37.9205 134.526 37.9205C138.848 37.9205 140.948 40.2518 140.948 43.5271C140.865 45.3775 140.066 47.1232 138.72 48.3951ZM134.526 38.8517C133.68 38.8177 132.836 38.9548 132.045 39.255C131.254 39.5552 130.531 40.0122 129.921 40.5986C128.773 41.7898 128.115 43.3694 128.078 45.0235C128.078 47.7144 130.095 49.519 133.049 49.519C133.882 49.5482 134.712 49.4102 135.491 49.1133C136.27 48.8163 136.982 48.3663 137.584 47.7898C138.186 47.2134 138.667 46.5222 138.997 45.7569C139.328 44.9917 139.502 44.168 139.509 43.3344C139.497 40.5344 137.634 38.8517 134.513 38.8517H134.526Z" fill="white"/>
<path d="M152.206 39.1279H147.711L144.499 50.2512H143.087L146.298 39.1279H141.757L142.014 38.1517H152.444L152.206 39.1279Z" fill="white"/>
<path d="M163.528 48.3951C161.959 49.7934 159.913 50.536 157.813 50.4695C153.914 50.4695 151.429 48.3438 151.429 44.985C151.429 40.8747 154.749 37.9205 159.328 37.9205C163.657 37.9205 165.75 40.2518 165.75 43.5271C165.669 45.3766 164.873 47.1222 163.528 48.3951ZM159.328 38.8517C158.484 38.8182 157.641 38.9556 156.851 39.2558C156.061 39.556 155.339 40.0127 154.73 40.5986C153.579 41.7881 152.921 43.3688 152.887 45.0235C152.887 47.7144 154.897 49.519 157.851 49.519C158.685 49.5482 159.515 49.4103 160.295 49.1133C161.074 48.8164 161.786 48.3665 162.389 47.7902C162.991 47.2138 163.473 46.5227 163.804 45.7574C164.135 44.9922 164.31 44.1683 164.318 43.3344C164.318 40.5344 162.482 38.8517 159.328 38.8517Z" fill="white"/>
<path d="M175.48 38.1517C176.333 38.1078 177.186 38.2411 177.985 38.5435C178.49 38.7595 178.923 39.1168 179.23 39.5724C179.538 40.0281 179.707 40.5627 179.719 41.1123C179.719 42.9427 178.088 44.4005 175.416 44.7088L177.985 50.2319H176.488L174.086 44.8436H169.591L168.024 50.2768H166.656L170.124 38.1774L175.48 38.1517ZM169.867 43.8418H174.151C176.867 43.8418 178.242 42.8463 178.242 41.1509C178.262 40.8546 178.205 40.5581 178.077 40.2903C177.948 40.0224 177.753 39.7924 177.51 39.6224C176.957 39.2435 176.354 39.1407 174.645 39.1407H171.235L169.867 43.8418Z" fill="white"/>
<path d="M191.645 41.4399C191.369 39.7637 190.084 38.8325 187.791 38.8325C185.499 38.8325 184.022 39.7059 184.022 41.061C184.022 42.2106 185.068 42.6023 186.591 43.1161L188.325 43.7005C190.636 44.4712 191.6 45.3125 191.6 46.7896C191.6 48.9796 189.326 50.4695 185.987 50.4695C182.455 50.4695 180.38 49.0823 180.38 46.4813V46.3272L181.857 46.0831C181.849 46.2093 181.849 46.3359 181.857 46.462C181.857 48.3887 183.373 49.5254 186.07 49.5254C188.639 49.5254 190.225 48.5172 190.225 46.9244C190.225 45.807 189.217 45.2804 187.702 44.7666L185.968 44.1822C184.041 43.54 182.628 42.8464 182.628 41.2536C182.628 39.2114 184.683 37.9077 187.933 37.9077C190.887 37.9077 192.621 38.9352 193.071 41.183L191.645 41.4399Z" fill="white"/>
<path d="M201.657 38.1517C202.657 38.0827 203.66 38.2092 204.611 38.5242C205.118 38.7429 205.547 39.108 205.845 39.5726C206.142 40.0372 206.294 40.5801 206.281 41.1316C206.273 41.7301 206.106 42.3155 205.796 42.828C205.487 43.3404 205.047 43.7612 204.521 44.0473C203.494 44.6895 202.126 44.9336 199.897 44.9336H196.217L194.715 50.2511H193.347L196.815 38.1517H201.657ZM196.519 43.9317H199.84C202.261 43.9317 203.269 43.6877 204.059 42.9491C204.317 42.7119 204.523 42.4229 204.663 42.1009C204.802 41.7789 204.872 41.4311 204.868 41.0802C204.868 39.7252 204.078 39.1536 202.023 39.1536H197.913L196.519 43.9317Z" fill="white"/>
<path d="M219.421 48.3951C217.852 49.7946 215.806 50.5373 213.705 50.4695C209.807 50.4695 207.321 48.3438 207.321 44.985C207.321 40.8747 210.642 37.9205 215.227 37.9205C219.549 37.9205 221.649 40.2518 221.649 43.5271C221.567 45.3775 220.767 47.1232 219.421 48.3951ZM215.227 38.8517C214.386 38.8212 213.547 38.96 212.76 39.2601C211.974 39.5602 211.255 40.0154 210.648 40.5986C209.497 41.7881 208.839 43.3688 208.805 45.0235C208.805 47.7144 210.815 49.519 213.776 49.519C214.609 49.5482 215.439 49.4102 216.218 49.1133C216.997 48.8163 217.709 48.3663 218.311 47.7898C218.913 47.2134 219.394 46.5222 219.724 45.7569C220.055 44.9917 220.229 44.168 220.236 43.3344C220.211 40.5344 218.355 38.8517 215.227 38.8517Z" fill="white"/>
<path d="M231.373 38.1517C232.226 38.1078 233.078 38.2411 233.877 38.5435C234.383 38.7595 234.815 39.1168 235.123 39.5724C235.43 40.0281 235.6 40.5627 235.611 41.1123C235.611 42.9427 233.98 44.4005 231.308 44.7088L233.877 50.2319H232.355L229.979 44.8436H225.483L223.923 50.2768H222.548L226.016 38.1774L231.373 38.1517ZM225.76 43.8418H230.043C232.76 43.8418 234.134 42.8463 234.134 41.1509C234.154 40.8546 234.097 40.5581 233.969 40.2903C233.841 40.0224 233.646 39.7924 233.402 39.6224C232.85 39.2435 232.246 39.1407 230.538 39.1407H227.134L225.76 43.8418Z" fill="white"/>
<path d="M247.518 39.1279H243.022L239.811 50.2512H238.398L241.61 39.1279H237.069L237.326 38.1517H247.756L247.518 39.1279Z" fill="white"/>
<path d="M250.029 33.5919H0L0.481665 32.3011H250.543L250.029 33.5919Z" fill="white"/>
<path d="M228.149 1.68005L240.299 1.69932L231.771 24.588H219.633L228.149 1.68005Z" fill="white"/>
<path fill-rule="evenodd" clip-rule="evenodd" d="M239.677 24.588L248.199 1.68006L260.343 1.69933L262 0.530487H247.409L238.058 25.7376L239.677 24.588Z" fill="#B2B2B2"/>
<path fill-rule="evenodd" clip-rule="evenodd" d="M262 0.530487L260.343 1.69933L251.814 24.588H239.677L238.058 25.7376H252.617L262 0.530487Z" fill="#575756"/>
<path d="M248.199 1.68005L260.343 1.69932L251.814 24.588H239.677L248.199 1.68005Z" fill="white"/>
</g>
<defs>
<clipPath id="clip0_8001_478">
<rect width="262" height="49.939" fill="white" transform="translate(0 0.530487)"/>
</clipPath>
</defs>
</svg>
